<svg xmlns="http://www.w3.org/2000/svg" xmlns:xlink="http://www.w3.org/1999/xlink" fill="none" version="1.1" width="24" height="24" viewBox="0 0 24 24"><g><g><g><g><path d="M8.37966984741211,19.389700162124633C8.08677664741211,19.682600162124633,8.08677664741211,20.157400162124635,8.37966984741211,20.450300162124634C8.67256284741211,20.743200162124634,9.14743684741211,20.743200162124634,9.440329847412109,20.450300162124634C9.440329847412109,20.450300162124634,8.37966984741211,19.389700162124633,8.37966984741211,19.389700162124633C8.37966984741211,19.389700162124633,8.37966984741211,19.389700162124633,8.37966984741211,19.389700162124633ZM9.440329847412109,3.5496701621246336C9.14743684741211,3.2567769621246336,8.67256284741211,3.2567769621246336,8.37966984741211,3.5496701621246336C8.08677664741211,3.842563162124634,8.08677664741211,4.317437162124634,8.37966984741211,4.610330162124634C8.37966984741211,4.610330162124634,9.440329847412109,3.5496701621246336,9.440329847412109,3.5496701621246336C9.440329847412109,3.5496701621246336,9.440329847412109,3.5496701621246336,9.440329847412109,3.5496701621246336ZM9.440329847412109,20.450300162124634C9.440329847412109,20.450300162124634,15.960329847412108,13.930300162124635,15.960329847412108,13.930300162124635C15.960329847412108,13.930300162124635,14.89966984741211,12.869670162124633,14.89966984741211,12.869670162124633C14.89966984741211,12.869670162124633,8.37966984741211,19.389700162124633,8.37966984741211,19.389700162124633C8.37966984741211,19.389700162124633,9.440329847412109,20.450300162124634,9.440329847412109,20.450300162124634C9.440329847412109,20.450300162124634,9.440329847412109,20.450300162124634,9.440329847412109,20.450300162124634ZM15.960329847412108,13.930300162124635C17.023219847412108,12.867440162124634,17.023219847412108,11.132560162124634,15.960329847412108,10.069670162124634C15.960329847412108,10.069670162124634,14.89966984741211,11.130330162124633,14.89966984741211,11.130330162124633C15.37677984741211,11.607440162124634,15.37677984741211,12.392560162124633,14.89966984741211,12.869670162124633C14.89966984741211,12.869670162124633,15.960329847412108,13.930300162124635,15.960329847412108,13.930300162124635C15.960329847412108,13.930300162124635,15.960329847412108,13.930300162124635,15.960329847412108,13.930300162124635ZM15.960329847412108,10.069670162124634C15.960329847412108,10.069670162124634,9.440329847412109,3.5496701621246336,9.440329847412109,3.5496701621246336C9.440329847412109,3.5496701621246336,8.37966984741211,4.610330162124634,8.37966984741211,4.610330162124634C8.37966984741211,4.610330162124634,14.89966984741211,11.130330162124633,14.89966984741211,11.130330162124633C14.89966984741211,11.130330162124633,15.960329847412108,10.069670162124634,15.960329847412108,10.069670162124634C15.960329847412108,10.069670162124634,15.960329847412108,10.069670162124634,15.960329847412108,10.069670162124634Z" fill="#292D32" fill-opacity="1"/></g><g transform="matrix(-1,0,0,-1,48,48.00000047683716)" style="opacity:0;"></g></g></g></g></svg>