<svg xmlns="http://www.w3.org/2000/svg" xmlns:xlink="http://www.w3.org/1999/xlink" fill="none" version="1.1" width="24" height="24" viewBox="0 0 24 24"><g><g><g><g style="opacity:0;"></g><g><path d="M17.539999923706056,8.810000104904175C19.174759923706056,8.810000104904175,20.499999923706056,7.484760104904175,20.499999923706056,5.850000104904175C20.499999923706056,4.215240104904175,19.174759923706056,2.890000104904175,17.539999923706056,2.890000104904175C15.905239923706056,2.890000104904175,14.579999923706055,4.215240104904175,14.579999923706055,5.850000104904175C14.579999923706055,7.484760104904175,15.905239923706056,8.810000104904175,17.539999923706056,8.810000104904175C17.539999923706056,8.810000104904175,17.539999923706056,8.810000104904175,17.539999923706056,8.810000104904175Z" fill="#292D32" fill-opacity="1"/></g><g><path d="M6.46,8.810000104904175C8.09476,8.810000104904175,9.42,7.484760104904175,9.42,5.850000104904175C9.42,4.215240104904175,8.09476,2.890000104904175,6.46,2.890000104904175C4.82524,2.890000104904175,3.5,4.215240104904175,3.5,5.850000104904175C3.5,7.484760104904175,4.82524,8.810000104904175,6.46,8.810000104904175C6.46,8.810000104904175,6.46,8.810000104904175,6.46,8.810000104904175Z" fill="#292D32" fill-opacity="1"/></g><g><path d="M17.539999923706056,21.109999580383302C19.174759923706056,21.109999580383302,20.499999923706056,19.7847595803833,20.499999923706056,18.1499995803833C20.499999923706056,16.5152395803833,19.174759923706056,15.1899995803833,17.539999923706056,15.1899995803833C15.905239923706056,15.1899995803833,14.579999923706055,16.5152395803833,14.579999923706055,18.1499995803833C14.579999923706055,19.7847595803833,15.905239923706056,21.109999580383302,17.539999923706056,21.109999580383302C17.539999923706056,21.109999580383302,17.539999923706056,21.109999580383302,17.539999923706056,21.109999580383302Z" fill="#292D32" fill-opacity="1"/></g><g><path d="M6.46,21.109999580383302C8.09476,21.109999580383302,9.42,19.7847595803833,9.42,18.1499995803833C9.42,16.5152395803833,8.09476,15.1899995803833,6.46,15.1899995803833C4.82524,15.1899995803833,3.5,16.5152395803833,3.5,18.1499995803833C3.5,19.7847595803833,4.82524,21.109999580383302,6.46,21.109999580383302C6.46,21.109999580383302,6.46,21.109999580383302,6.46,21.109999580383302Z" fill="#292D32" fill-opacity="1"/></g></g></g></g></svg>