<svg xmlns="http://www.w3.org/2000/svg" xmlns:xlink="http://www.w3.org/1999/xlink" fill="none" version="1.1" width="24" height="24" viewBox="0 0 24 24"><g><g><g><g><path d="M5,10.75C5,10.75,7,10.75,7,10.75C7,10.75,7,9.25,7,9.25C7,9.25,5,9.25,5,9.25C5,9.25,5,10.75,5,10.75C5,10.75,5,10.75,5,10.75ZM7,10.75C8.11561,10.75,9.09007,10.47059,9.78033,9.78033C10.47059,9.09007,10.75,8.11561,10.75,7C10.75,7,9.25,7,9.25,7C9.25,7.88439,9.02941,8.40993,8.71967,8.71967C8.40993,9.02941,7.88439,9.25,7,9.25C7,9.25,7,10.75,7,10.75C7,10.75,7,10.75,7,10.75ZM10.75,7C10.75,7,10.75,5,10.75,5C10.75,5,9.25,5,9.25,5C9.25,5,9.25,7,9.25,7C9.25,7,10.75,7,10.75,7C10.75,7,10.75,7,10.75,7ZM10.75,5C10.75,3.88439,10.47059,2.90993,9.78033,2.21967C9.09007,1.52941,8.11561,1.25,7,1.25C7,1.25,7,2.75,7,2.75C7.88439,2.75,8.40993,2.97059,8.71967,3.28033C9.02941,3.59007,9.25,4.11561,9.25,5C9.25,5,10.75,5,10.75,5C10.75,5,10.75,5,10.75,5ZM7,1.25C7,1.25,5,1.25,5,1.25C5,1.25,5,2.75,5,2.75C5,2.75,7,2.75,7,2.75C7,2.75,7,1.25,7,1.25C7,1.25,7,1.25,7,1.25ZM5,1.25C3.88439,1.25,2.90993,1.52941,2.21967,2.21967C1.52941,2.90993,1.25,3.88439,1.25,5C1.25,5,2.75,5,2.75,5C2.75,4.11561,2.97059,3.59007,3.28033,3.28033C3.59007,2.97059,4.11561,2.75,5,2.75C5,2.75,5,1.25,5,1.25C5,1.25,5,1.25,5,1.25ZM1.25,5C1.25,5,1.25,7,1.25,7C1.25,7,2.75,7,2.75,7C2.75,7,2.75,5,2.75,5C2.75,5,1.25,5,1.25,5C1.25,5,1.25,5,1.25,5ZM1.25,7C1.25,8.11561,1.52941,9.09007,2.21967,9.78033C2.90993,10.47059,3.88439,10.75,5,10.75C5,10.75,5,9.25,5,9.25C4.11561,9.25,3.59007,9.02941,3.28033,8.71967C2.97059,8.40993,2.75,7.88439,2.75,7C2.75,7,1.25,7,1.25,7C1.25,7,1.25,7,1.25,7Z" fill="#292D32" fill-opacity="1"/></g><g><path d="M17,10.75C17,10.75,19,10.75,19,10.75C19,10.75,19,9.25,19,9.25C19,9.25,17,9.25,17,9.25C17,9.25,17,10.75,17,10.75C17,10.75,17,10.75,17,10.75ZM19,10.75C20.11561,10.75,21.09007,10.47059,21.78033,9.78033C22.47059,9.09007,22.75,8.11561,22.75,7C22.75,7,21.25,7,21.25,7C21.25,7.88439,21.02941,8.40993,20.71967,8.71967C20.40993,9.02941,19.88439,9.25,19,9.25C19,9.25,19,10.75,19,10.75C19,10.75,19,10.75,19,10.75ZM22.75,7C22.75,7,22.75,5,22.75,5C22.75,5,21.25,5,21.25,5C21.25,5,21.25,7,21.25,7C21.25,7,22.75,7,22.75,7C22.75,7,22.75,7,22.75,7ZM22.75,5C22.75,3.88439,22.47059,2.90993,21.78033,2.21967C21.09007,1.52941,20.11561,1.25,19,1.25C19,1.25,19,2.75,19,2.75C19.88439,2.75,20.40993,2.97059,20.71967,3.28033C21.02941,3.59007,21.25,4.11561,21.25,5C21.25,5,22.75,5,22.75,5C22.75,5,22.75,5,22.75,5ZM19,1.25C19,1.25,17,1.25,17,1.25C17,1.25,17,2.75,17,2.75C17,2.75,19,2.75,19,2.75C19,2.75,19,1.25,19,1.25C19,1.25,19,1.25,19,1.25ZM17,1.25C15.88439,1.25,14.90993,1.52941,14.21967,2.21967C13.52941,2.90993,13.25,3.88439,13.25,5C13.25,5,14.75,5,14.75,5C14.75,4.11561,14.97059,3.59007,15.28033,3.28033C15.59007,2.97059,16.11561,2.75,17,2.75C17,2.75,17,1.25,17,1.25C17,1.25,17,1.25,17,1.25ZM13.25,5C13.25,5,13.25,7,13.25,7C13.25,7,14.75,7,14.75,7C14.75,7,14.75,5,14.75,5C14.75,5,13.25,5,13.25,5C13.25,5,13.25,5,13.25,5ZM13.25,7C13.25,8.11561,13.52941,9.09007,14.21967,9.78033C14.90993,10.47059,15.88439,10.75,17,10.75C17,10.75,17,9.25,17,9.25C16.11561,9.25,15.59007,9.02941,15.28033,8.71967C14.97059,8.40993,14.75,7.88439,14.75,7C14.75,7,13.25,7,13.25,7C13.25,7,13.25,7,13.25,7Z" fill="#292D32" fill-opacity="1"/></g><g><path d="M17,22.75C17,22.75,19,22.75,19,22.75C19,22.75,19,21.25,19,21.25C19,21.25,17,21.25,17,21.25C17,21.25,17,22.75,17,22.75C17,22.75,17,22.75,17,22.75ZM19,22.75C20.11561,22.75,21.09007,22.47059,21.78033,21.78033C22.47059,21.09007,22.75,20.11561,22.75,19C22.75,19,21.25,19,21.25,19C21.25,19.88439,21.02941,20.40993,20.71967,20.71967C20.40993,21.02941,19.88439,21.25,19,21.25C19,21.25,19,22.75,19,22.75C19,22.75,19,22.75,19,22.75ZM22.75,19C22.75,19,22.75,17,22.75,17C22.75,17,21.25,17,21.25,17C21.25,17,21.25,19,21.25,19C21.25,19,22.75,19,22.75,19C22.75,19,22.75,19,22.75,19ZM22.75,17C22.75,15.88439,22.47059,14.90993,21.78033,14.21967C21.09007,13.52941,20.11561,13.25,19,13.25C19,13.25,19,14.75,19,14.75C19.88439,14.75,20.40993,14.97059,20.71967,15.28033C21.02941,15.59007,21.25,16.11561,21.25,17C21.25,17,22.75,17,22.75,17C22.75,17,22.75,17,22.75,17ZM19,13.25C19,13.25,17,13.25,17,13.25C17,13.25,17,14.75,17,14.75C17,14.75,19,14.75,19,14.75C19,14.75,19,13.25,19,13.25C19,13.25,19,13.25,19,13.25ZM17,13.25C15.88439,13.25,14.90993,13.52941,14.21967,14.21967C13.52941,14.90993,13.25,15.88439,13.25,17C13.25,17,14.75,17,14.75,17C14.75,16.11561,14.97059,15.59007,15.28033,15.28033C15.59007,14.97059,16.11561,14.75,17,14.75C17,14.75,17,13.25,17,13.25C17,13.25,17,13.25,17,13.25ZM13.25,17C13.25,17,13.25,19,13.25,19C13.25,19,14.75,19,14.75,19C14.75,19,14.75,17,14.75,17C14.75,17,13.25,17,13.25,17C13.25,17,13.25,17,13.25,17ZM13.25,19C13.25,20.11561,13.52941,21.09007,14.21967,21.78033C14.90993,22.47059,15.88439,22.75,17,22.75C17,22.75,17,21.25,17,21.25C16.11561,21.25,15.59007,21.02941,15.28033,20.71967C14.97059,20.40993,14.75,19.88439,14.75,19C14.75,19,13.25,19,13.25,19C13.25,19,13.25,19,13.25,19Z" fill="#292D32" fill-opacity="1"/></g><g><path d="M5,22.75C5,22.75,7,22.75,7,22.75C7,22.75,7,21.25,7,21.25C7,21.25,5,21.25,5,21.25C5,21.25,5,22.75,5,22.75C5,22.75,5,22.75,5,22.75ZM7,22.75C8.11561,22.75,9.09007,22.47059,9.78033,21.78033C10.47059,21.09007,10.75,20.11561,10.75,19C10.75,19,9.25,19,9.25,19C9.25,19.88439,9.02941,20.40993,8.71967,20.71967C8.40993,21.02941,7.88439,21.25,7,21.25C7,21.25,7,22.75,7,22.75C7,22.75,7,22.75,7,22.75ZM10.75,19C10.75,19,10.75,17,10.75,17C10.75,17,9.25,17,9.25,17C9.25,17,9.25,19,9.25,19C9.25,19,10.75,19,10.75,19C10.75,19,10.75,19,10.75,19ZM10.75,17C10.75,15.88439,10.47059,14.90993,9.78033,14.21967C9.09007,13.52941,8.11561,13.25,7,13.25C7,13.25,7,14.75,7,14.75C7.88439,14.75,8.40993,14.97059,8.71967,15.28033C9.02941,15.59007,9.25,16.11561,9.25,17C9.25,17,10.75,17,10.75,17C10.75,17,10.75,17,10.75,17ZM7,13.25C7,13.25,5,13.25,5,13.25C5,13.25,5,14.75,5,14.75C5,14.75,7,14.75,7,14.75C7,14.75,7,13.25,7,13.25C7,13.25,7,13.25,7,13.25ZM5,13.25C3.88439,13.25,2.90993,13.52941,2.21967,14.21967C1.52941,14.90993,1.25,15.88439,1.25,17C1.25,17,2.75,17,2.75,17C2.75,16.11561,2.97059,15.59007,3.28033,15.28033C3.59007,14.97059,4.11561,14.75,5,14.75C5,14.75,5,13.25,5,13.25C5,13.25,5,13.25,5,13.25ZM1.25,17C1.25,17,1.25,19,1.25,19C1.25,19,2.75,19,2.75,19C2.75,19,2.75,17,2.75,17C2.75,17,1.25,17,1.25,17C1.25,17,1.25,17,1.25,17ZM1.25,19C1.25,20.11561,1.52941,21.09007,2.21967,21.78033C2.90993,22.47059,3.88439,22.75,5,22.75C5,22.75,5,21.25,5,21.25C4.11561,21.25,3.59007,21.02941,3.28033,20.71967C2.97059,20.40993,2.75,19.88439,2.75,19C2.75,19,1.25,19,1.25,19C1.25,19,1.25,19,1.25,19Z" fill="#292D32" fill-opacity="1"/></g><g style="opacity:0;"></g></g></g></g></svg>