<svg xmlns="http://www.w3.org/2000/svg" xmlns:xlink="http://www.w3.org/1999/xlink" fill="none" version="1.1" width="24" height="24" viewBox="0 0 24 24"><g><g><g><g><path d="M2.0300000532836915,12.41993292312622C2.0300000532836915,12.41993292312622,2.7781780532836917,12.367632923126221,2.7781780532836917,12.367632923126221C2.7781780532836917,12.367632923126221,2.7780480532836913,12.36593292312622,2.7780480532836913,12.36593292312622C2.7780480532836913,12.36593292312622,2.0300000532836915,12.41993292312622,2.0300000532836915,12.41993292312622C2.0300000532836915,12.41993292312622,2.0300000532836915,12.41993292312622,2.0300000532836915,12.41993292312622ZM11.989978053283691,21.989932923126222C11.989978053283691,21.989932923126222,11.957078053283691,22.73923292312622,11.957078053283691,22.73923292312622C11.957078053283691,22.73923292312622,11.957478053283692,22.73923292312622,11.957478053283692,22.73923292312622C11.957478053283692,22.73923292312622,11.989978053283691,21.989932923126222,11.989978053283691,21.989932923126222C11.989978053283691,21.989932923126222,11.989978053283691,21.989932923126222,11.989978053283691,21.989932923126222ZM20.96007805328369,17.71993292312622C20.96007805328369,17.71993292312622,20.35677805328369,17.27433292312622,20.35677805328369,17.27433292312622C20.35677805328369,17.27433292312622,20.354478053283692,17.27753292312622,20.354478053283692,17.27753292312622C20.354478053283692,17.27753292312622,20.96007805328369,17.71993292312622,20.96007805328369,17.71993292312622C20.96007805328369,17.71993292312622,20.96007805328369,17.71993292312622,20.96007805328369,17.71993292312622ZM19.970078053283693,16.11993292312622C19.970078053283693,16.11993292312622,20.10227805328369,16.85823292312622,20.10227805328369,16.85823292312622C20.10227805328369,16.85823292312622,20.104678053283692,16.85783292312622,20.104678053283692,16.85783292312622C20.104678053283692,16.85783292312622,19.970078053283693,16.11993292312622,19.970078053283693,16.11993292312622C19.970078053283693,16.11993292312622,19.970078053283693,16.11993292312622,19.970078053283693,16.11993292312622ZM17.89007805328369,16.25993292312622C17.89007805328369,16.25993292312622,17.921278053283693,15.51063292312622,17.921278053283693,15.51063292312622C17.921278053283693,15.51063292312622,17.92067805328369,15.51063292312622,17.92067805328369,15.51063292312622C17.92067805328369,15.51063292312622,17.89007805328369,16.25993292312622,17.89007805328369,16.25993292312622C17.89007805328369,16.25993292312622,17.89007805328369,16.25993292312622,17.89007805328369,16.25993292312622ZM8.97999805328369,7.139992923126221C8.97999805328369,7.139992923126221,9.729998053283692,7.13689292312622,9.729998053283692,7.13689292312622C9.729998053283692,7.13689292312622,9.729978053283691,7.134222923126221,9.729978053283691,7.134222923126221C9.729978053283691,7.134222923126221,8.97999805328369,7.139992923126221,8.97999805328369,7.139992923126221C8.97999805328369,7.139992923126221,8.97999805328369,7.139992923126221,8.97999805328369,7.139992923126221ZM9.729998053283692,3.489992923126221C9.729998053283692,3.489992923126221,10.41711805328369,3.7906129231262207,10.41711805328369,3.7906129231262207C10.41711805328369,3.7906129231262207,10.417628053283691,3.7894429231262206,10.417628053283691,3.7894429231262206C10.417628053283691,3.7894429231262206,9.729998053283692,3.489992923126221,9.729998053283692,3.489992923126221C9.729998053283692,3.489992923126221,9.729998053283692,3.489992923126221,9.729998053283692,3.489992923126221ZM8.369998053283691,2.1899999231262206C8.369998053283691,2.1899999231262206,8.661428053283691,2.881062923126221,8.661428053283691,2.881062923126221C8.661428053283691,2.881062923126221,8.662768053283692,2.8804929231262206,8.662768053283692,2.8804929231262206C8.662768053283692,2.8804929231262206,8.369998053283691,2.1899999231262206,8.369998053283691,2.1899999231262206C8.369998053283691,2.1899999231262206,8.369998053283691,2.1899999231262206,8.369998053283691,2.1899999231262206ZM1.2818257532836914,12.47223292312622C1.6690990532836913,18.01243292312622,6.356038053283691,22.492932923126222,11.957078053283691,22.73923292312622C11.957078053283691,22.73923292312622,12.022978053283692,21.24073292312622,12.022978053283692,21.24073292312622C7.163958053283691,21.02703292312622,3.1108980532836914,17.12753292312622,2.7781780532836917,12.367632923126221C2.7781780532836917,12.367632923126221,1.2818257532836914,12.47223292312622,1.2818257532836914,12.47223292312622C1.2818257532836914,12.47223292312622,1.2818257532836914,12.47223292312622,1.2818257532836914,12.47223292312622ZM11.957478053283692,22.73923292312622C15.904878053283692,22.91043292312622,19.441578053283692,21.06953292312622,21.56557805328369,18.16243292312622C21.56557805328369,18.16243292312622,20.354478053283692,17.27753292312622,20.354478053283692,17.27753292312622C18.51847805328369,19.79043292312622,15.455278053283692,21.38953292312622,12.022478053283692,21.24063292312622C12.022478053283692,21.24063292312622,11.957478053283692,22.73923292312622,11.957478053283692,22.73923292312622C11.957478053283692,22.73923292312622,11.957478053283692,22.73923292312622,11.957478053283692,22.73923292312622ZM21.563278053283693,18.16563292312622C21.80617805328369,17.83683292312622,21.990278053283692,17.49063292312622,22.07357805328369,17.13993292312622C22.158078053283692,16.78453292312622,22.14657805328369,16.37943292312622,21.926278053283692,16.018932923126222C21.704978053283693,15.65673292312622,21.34777805328369,15.46183292312622,20.988378053283693,15.37803292312622C20.63527805328369,15.29563292312622,20.24077805328369,15.308232923126221,19.83537805328369,15.382132923126221C19.83537805328369,15.382132923126221,20.104678053283692,16.85783292312622,20.104678053283692,16.85783292312622C20.38427805328369,16.80673292312622,20.558578053283693,16.81803292312622,20.64767805328369,16.83883292312622C20.73037805328369,16.85813292312622,20.68887805328369,16.870632923126223,20.64627805328369,16.801032923126222C20.604678053283692,16.73293292312622,20.635078053283692,16.70543292312622,20.61427805328369,16.793132923126223C20.592278053283692,16.88553292312622,20.52397805328369,17.04813292312622,20.35677805328369,17.27433292312622C20.35677805328369,17.27433292312622,21.563278053283693,18.16563292312622,21.563278053283693,18.16563292312622C21.563278053283693,18.16563292312622,21.563278053283693,18.16563292312622,21.563278053283693,18.16563292312622ZM19.837778053283692,15.38173292312622C19.22107805328369,15.49223292312622,18.585878053283693,15.538332923126221,17.921278053283693,15.51063292312622C17.921278053283693,15.51063292312622,17.858778053283693,17.009332923126223,17.858778053283693,17.009332923126223C18.63427805328369,17.041632923126222,19.379078053283692,16.98773292312622,20.10227805328369,16.85823292312622C20.10227805328369,16.85823292312622,19.837778053283692,15.38173292312622,19.837778053283692,15.38173292312622C19.837778053283692,15.38173292312622,19.837778053283692,15.38173292312622,19.837778053283692,15.38173292312622ZM17.92067805328369,15.51063292312622C13.421878053283692,15.32663292312622,9.74828805328369,11.55633292312622,9.72998805328369,7.13689292312622C9.72998805328369,7.13689292312622,8.23000805328369,7.143102923126221,8.23000805328369,7.143102923126221C8.251708053283691,12.383632923126221,12.578178053283692,16.793332923126222,17.85937805328369,17.009332923126223C17.85937805328369,17.009332923126223,17.92067805328369,15.51063292312622,17.92067805328369,15.51063292312622C17.92067805328369,15.51063292312622,17.92067805328369,15.51063292312622,17.92067805328369,15.51063292312622ZM9.729978053283691,7.134222923126221C9.720818053283692,5.9433829231262205,9.96783805328369,4.817522923126221,10.41711805328369,3.7906129231262207C10.41711805328369,3.7906129231262207,9.04287805328369,3.189382923126221,9.04287805328369,3.189382923126221C8.512158053283692,4.40247292312622,8.219178053283692,5.736612923126221,8.230018053283692,7.14576292312622C8.230018053283692,7.14576292312622,9.729978053283691,7.134222923126221,9.729978053283691,7.134222923126221C9.729978053283691,7.134222923126221,9.729978053283691,7.134222923126221,9.729978053283691,7.134222923126221ZM10.417628053283691,3.7894429231262206C10.71408805328369,3.1086829231262207,10.85752805328369,2.2152049231262207,10.23501805328369,1.6298609231262207C9.635478053283691,1.0661109231262207,8.757228053283692,1.2111851231262207,8.07722805328369,1.4995039231262206C8.07722805328369,1.4995039231262206,8.662768053283692,2.8804929231262206,8.662768053283692,2.8804929231262206C8.91439805328369,2.7738029231262207,9.087418053283692,2.7450929231262204,9.185268053283691,2.745152923126221C9.27967805328369,2.745222923126221,9.257358053283692,2.7695429231262207,9.20747805328369,2.722642923126221C9.153208053283691,2.671602923126221,9.169808053283692,2.634342923126221,9.17124805328369,2.704562923126221C9.172878053283691,2.7840629231262204,9.15003805328369,2.943322923126221,9.042368053283692,3.1905429231262206C9.042368053283692,3.1905429231262206,10.417628053283691,3.7894429231262206,10.417628053283691,3.7894429231262206C10.417628053283691,3.7894429231262206,10.417628053283691,3.7894429231262206,10.417628053283691,3.7894429231262206ZM8.078568053283691,1.4989379231262208C3.8418980532836913,3.2856129231262208,0.9273200532836914,7.562902923126221,1.2819477532836914,12.47403292312622C1.2819477532836914,12.47403292312622,2.7780480532836913,12.36593292312622,2.7780480532836913,12.36593292312622C2.4726880532836915,8.13708292312622,4.978098053283691,4.43438292312622,8.661428053283691,2.881062923126221C8.661428053283691,2.881062923126221,8.078568053283691,1.4989379231262208,8.078568053283691,1.4989379231262208C8.078568053283691,1.4989379231262208,8.078568053283691,1.4989379231262208,8.078568053283691,1.4989379231262208Z" fill="#292D32" fill-opacity="1"/></g><g transform="matrix(-1,0,0,-1,48.00000190734863,48.000000953674316)" style="opacity:0;"></g></g></g></g></svg>