<svg xmlns="http://www.w3.org/2000/svg" xmlns:xlink="http://www.w3.org/1999/xlink" fill="none" version="1.1" width="24" height="24" viewBox="0 0 24 24"><g><g><g><g><path d="M17.75,12C17.75,15.1756,15.1756,17.75,12,17.75C12,17.75,12,19.25,12,19.25C16.0041,19.25,19.25,16.0041,19.25,12C19.25,12,17.75,12,17.75,12C17.75,12,17.75,12,17.75,12ZM12,17.75C8.82436,17.75,6.25,15.1756,6.25,12C6.25,12,4.75,12,4.75,12C4.75,16.0041,7.99594,19.25,12,19.25C12,19.25,12,17.75,12,17.75C12,17.75,12,17.75,12,17.75ZM6.25,12C6.25,8.82436,8.82436,6.25,12,6.25C12,6.25,12,4.75,12,4.75C7.99594,4.75,4.75,7.99594,4.75,12C4.75,12,6.25,12,6.25,12C6.25,12,6.25,12,6.25,12ZM12,6.25C15.1756,6.25,17.75,8.82436,17.75,12C17.75,12,19.25,12,19.25,12C19.25,7.99594,16.0041,4.75,12,4.75C12,4.75,12,6.25,12,6.25C12,6.25,12,6.25,12,6.25Z" fill="#292D32" fill-opacity="1"/></g><g><path d="M18.3029,4.28289C17.9124,4.67342,17.9124,5.30658,18.3029,5.69711C18.6934,6.08763,19.3266,6.08763,19.7171,5.69711C19.7171,5.69711,18.3029,4.28289,18.3029,4.28289C18.3029,4.28289,18.3029,4.28289,18.3029,4.28289ZM19.8471,5.56711C20.2376,5.17658,20.2376,4.543419999999999,19.8471,4.15289C19.4566,3.76237,18.8234,3.76237,18.4329,4.15289C18.4329,4.15289,19.8471,5.56711,19.8471,5.56711C19.8471,5.56711,19.8471,5.56711,19.8471,5.56711ZM4.15289,18.4329C3.76237,18.8234,3.76237,19.4566,4.15289,19.8471C4.543419999999999,20.2376,5.17658,20.2376,5.56711,19.8471C5.56711,19.8471,4.15289,18.4329,4.15289,18.4329C4.15289,18.4329,4.15289,18.4329,4.15289,18.4329ZM5.69711,19.7171C6.08763,19.3266,6.08763,18.6934,5.69711,18.3029C5.30658,17.9124,4.67342,17.9124,4.28289,18.3029C4.28289,18.3029,5.69711,19.7171,5.69711,19.7171C5.69711,19.7171,5.69711,19.7171,5.69711,19.7171ZM11,2.08C11,2.6322799999999997,11.4477,3.08,12,3.08C12.5523,3.08,13,2.6322799999999997,13,2.08C13,2.08,11,2.08,11,2.08C11,2.08,11,2.08,11,2.08ZM13,2C13,1.447715,12.5523,1,12,1C11.4477,1,11,1.447715,11,2C11,2,13,2,13,2C13,2,13,2,13,2ZM11,22C11,22.5523,11.4477,23,12,23C12.5523,23,13,22.5523,13,22C13,22,11,22,11,22C11,22,11,22,11,22ZM13,21.92C13,21.3677,12.5523,20.92,12,20.92C11.4477,20.92,11,21.3677,11,21.92C11,21.92,13,21.92,13,21.92C13,21.92,13,21.92,13,21.92ZM2.08,13C2.6322799999999997,13,3.08,12.5523,3.08,12C3.08,11.4477,2.6322799999999997,11,2.08,11C2.08,11,2.08,13,2.08,13C2.08,13,2.08,13,2.08,13ZM2,11C1.447715,11,1,11.4477,1,12C1,12.5523,1.447715,13,2,13C2,13,2,11,2,11C2,11,2,11,2,11ZM22,13C22.5523,13,23,12.5523,23,12C23,11.4477,22.5523,11,22,11C22,11,22,13,22,13C22,13,22,13,22,13ZM21.92,11C21.3677,11,20.92,11.4477,20.92,12C20.92,12.5523,21.3677,13,21.92,13C21.92,13,21.92,11,21.92,11C21.92,11,21.92,11,21.92,11ZM4.28289,5.69711C4.67342,6.08763,5.30658,6.08763,5.69711,5.69711C6.08763,5.30658,6.08763,4.67342,5.69711,4.28289C5.69711,4.28289,4.28289,5.69711,4.28289,5.69711C4.28289,5.69711,4.28289,5.69711,4.28289,5.69711ZM5.56711,4.15289C5.17658,3.76237,4.543419999999999,3.76237,4.15289,4.15289C3.76237,4.543419999999999,3.76237,5.17658,4.15289,5.56711C4.15289,5.56711,5.56711,4.15289,5.56711,4.15289C5.56711,4.15289,5.56711,4.15289,5.56711,4.15289ZM18.4329,19.8471C18.8234,20.2376,19.4566,20.2376,19.8471,19.8471C20.2376,19.4566,20.2376,18.8234,19.8471,18.4329C19.8471,18.4329,18.4329,19.8471,18.4329,19.8471C18.4329,19.8471,18.4329,19.8471,18.4329,19.8471ZM19.7171,18.3029C19.3266,17.9124,18.6934,17.9124,18.3029,18.3029C17.9124,18.6934,17.9124,19.3266,18.3029,19.7171C18.3029,19.7171,19.7171,18.3029,19.7171,18.3029C19.7171,18.3029,19.7171,18.3029,19.7171,18.3029ZM19.7171,5.69711C19.7171,5.69711,19.8471,5.56711,19.8471,5.56711C19.8471,5.56711,18.4329,4.15289,18.4329,4.15289C18.4329,4.15289,18.3029,4.28289,18.3029,4.28289C18.3029,4.28289,19.7171,5.69711,19.7171,5.69711C19.7171,5.69711,19.7171,5.69711,19.7171,5.69711ZM18.4329,4.15289C18.4329,4.15289,18.3029,4.28289,18.3029,4.28289C18.3029,4.28289,19.7171,5.69711,19.7171,5.69711C19.7171,5.69711,19.8471,5.56711,19.8471,5.56711C19.8471,5.56711,18.4329,4.15289,18.4329,4.15289C18.4329,4.15289,18.4329,4.15289,18.4329,4.15289ZM5.56711,19.8471C5.56711,19.8471,5.69711,19.7171,5.69711,19.7171C5.69711,19.7171,4.28289,18.3029,4.28289,18.3029C4.28289,18.3029,4.15289,18.4329,4.15289,18.4329C4.15289,18.4329,5.56711,19.8471,5.56711,19.8471C5.56711,19.8471,5.56711,19.8471,5.56711,19.8471ZM4.28289,18.3029C4.28289,18.3029,4.15289,18.4329,4.15289,18.4329C4.15289,18.4329,5.56711,19.8471,5.56711,19.8471C5.56711,19.8471,5.69711,19.7171,5.69711,19.7171C5.69711,19.7171,4.28289,18.3029,4.28289,18.3029C4.28289,18.3029,4.28289,18.3029,4.28289,18.3029ZM13,2.08C13,2.08,13,2,13,2C13,2,11,2,11,2C11,2,11,2.08,11,2.08C11,2.08,13,2.08,13,2.08C13,2.08,13,2.08,13,2.08ZM11,2C11,2,11,2.08,11,2.08C11,2.08,13,2.08,13,2.08C13,2.08,13,2,13,2C13,2,11,2,11,2C11,2,11,2,11,2ZM13,22C13,22,13,21.92,13,21.92C13,21.92,11,21.92,11,21.92C11,21.92,11,22,11,22C11,22,13,22,13,22C13,22,13,22,13,22ZM11,21.92C11,21.92,11,22,11,22C11,22,13,22,13,22C13,22,13,21.92,13,21.92C13,21.92,11,21.92,11,21.92C11,21.92,11,21.92,11,21.92ZM2.08,11C2.08,11,2,11,2,11C2,11,2,13,2,13C2,13,2.08,13,2.08,13C2.08,13,2.08,11,2.08,11C2.08,11,2.08,11,2.08,11ZM2,13C2,13,2.08,13,2.08,13C2.08,13,2.08,11,2.08,11C2.08,11,2,11,2,11C2,11,2,13,2,13C2,13,2,13,2,13ZM22,11C22,11,21.92,11,21.92,11C21.92,11,21.92,13,21.92,13C21.92,13,22,13,22,13C22,13,22,11,22,11C22,11,22,11,22,11ZM21.92,13C21.92,13,22,13,22,13C22,13,22,11,22,11C22,11,21.92,11,21.92,11C21.92,11,21.92,13,21.92,13C21.92,13,21.92,13,21.92,13ZM5.69711,4.28289C5.69711,4.28289,5.56711,4.15289,5.56711,4.15289C5.56711,4.15289,4.15289,5.56711,4.15289,5.56711C4.15289,5.56711,4.28289,5.69711,4.28289,5.69711C4.28289,5.69711,5.69711,4.28289,5.69711,4.28289C5.69711,4.28289,5.69711,4.28289,5.69711,4.28289ZM4.15289,5.56711C4.15289,5.56711,4.28289,5.69711,4.28289,5.69711C4.28289,5.69711,5.69711,4.28289,5.69711,4.28289C5.69711,4.28289,5.56711,4.15289,5.56711,4.15289C5.56711,4.15289,4.15289,5.56711,4.15289,5.56711C4.15289,5.56711,4.15289,5.56711,4.15289,5.56711ZM19.8471,18.4329C19.8471,18.4329,19.7171,18.3029,19.7171,18.3029C19.7171,18.3029,18.3029,19.7171,18.3029,19.7171C18.3029,19.7171,18.4329,19.8471,18.4329,19.8471C18.4329,19.8471,19.8471,18.4329,19.8471,18.4329C19.8471,18.4329,19.8471,18.4329,19.8471,18.4329Z" fill="#292D32" fill-opacity="1"/></g><g transform="matrix(-1,0,0,-1,48,48)" style="opacity:0;"></g></g></g></g></svg>