<svg xmlns="http://www.w3.org/2000/svg" xmlns:xlink="http://www.w3.org/1999/xlink" fill="none" version="1.1" width="24" height="24" viewBox="0 0 24 24"><g><g><g><g><path d="M22,12C22,6.49,17.509999999999998,2,12,2C6.49,2,2,6.49,2,12C2,14.9,3.25,17.509999999999998,5.23,19.34C5.23,19.35,5.23,19.35,5.220000000000001,19.36C5.32,19.46,5.4399999999999995,19.54,5.54,19.63C5.6,19.68,5.65,19.73,5.71,19.77C5.890000000000001,19.92,6.09,20.06,6.28,20.2C6.35,20.25,6.41,20.29,6.48,20.34C6.67,20.47,6.87,20.59,7.08,20.7C7.15,20.74,7.23,20.79,7.3,20.83C7.5,20.94,7.71,21.04,7.93,21.13C8.01,21.17,8.09,21.21,8.17,21.24C8.39,21.33,8.61,21.41,8.83,21.48C8.91,21.51,8.99,21.54,9.07,21.56C9.309999999999999,21.63,9.55,21.69,9.79,21.75C9.86,21.77,9.93,21.79,10.01,21.8C10.29,21.86,10.57,21.9,10.86,21.93C10.9,21.93,10.94,21.94,10.98,21.95C11.32,21.98,11.66,22,12,22C12.34,22,12.68,21.98,13.01,21.95C13.05,21.95,13.09,21.94,13.13,21.93C13.42,21.9,13.7,21.86,13.98,21.8C14.05,21.79,14.12,21.76,14.2,21.75C14.44,21.69,14.69,21.64,14.92,21.56C15,21.53,15.08,21.5,15.16,21.48C15.38,21.4,15.61,21.33,15.82,21.24C15.9,21.21,15.98,21.17,16.060000000000002,21.13C16.27,21.04,16.48,20.94,16.689999999999998,20.83C16.77,20.79,16.84,20.74,16.91,20.7C17.11,20.58,17.310000000000002,20.47,17.509999999999998,20.34C17.58,20.3,17.64,20.25,17.71,20.2C17.91,20.06,18.1,19.92,18.28,19.77C18.34,19.72,18.39,19.67,18.45,19.63C18.56,19.54,18.67,19.45,18.77,19.36C18.77,19.35,18.77,19.35,18.76,19.34C20.75,17.509999999999998,22,14.9,22,12C22,12,22,12,22,12ZM16.939999999999998,16.97C14.23,15.15,9.79,15.15,7.06,16.97C6.62,17.259999999999998,6.26,17.6,5.96,17.97C4.4399999999999995,16.43,3.5,14.32,3.5,12C3.5,7.31,7.31,3.5,12,3.5C16.689999999999998,3.5,20.5,7.31,20.5,12C20.5,14.32,19.56,16.43,18.04,17.97C17.75,17.6,17.380000000000003,17.259999999999998,16.939999999999998,16.97C16.939999999999998,16.97,16.939999999999998,16.97,16.939999999999998,16.97Z" fill="#292D32" fill-opacity="1"/></g><g><path d="M12,6.929999828338623C9.93,6.929999828338623,8.25,8.609999828338623,8.25,10.679999828338623C8.25,12.709999828338624,9.84,14.359999828338623,11.95,14.419999828338623C11.98,14.419999828338623,12.02,14.419999828338623,12.04,14.419999828338623C12.06,14.419999828338623,12.09,14.419999828338623,12.11,14.419999828338623C12.120000000000001,14.419999828338623,12.129999999999999,14.419999828338623,12.129999999999999,14.419999828338623C14.15,14.349999828338623,15.74,12.709999828338624,15.75,10.679999828338623C15.75,8.609999828338623,14.07,6.929999828338623,12,6.929999828338623C12,6.929999828338623,12,6.929999828338623,12,6.929999828338623Z" fill="#292D32" fill-opacity="1"/></g><g transform="matrix(-1,0,0,-1,48,48)" style="opacity:0;"></g></g></g></g></svg>