<svg xmlns="http://www.w3.org/2000/svg" xmlns:xlink="http://www.w3.org/1999/xlink" fill="none" version="1.1" width="24" height="24" viewBox="0 0 24 24"><g><g><g><g style="opacity:0;"></g><g><g><path d="M16.189999999999998,2C16.189999999999998,2,7.81,2,7.81,2C4.17,2,2,4.17,2,7.81C2,7.81,2,16.189999999999998,2,16.189999999999998C2,19,3.29,20.93,5.5600000000000005,21.66C6.22,21.89,6.98,22,7.81,22C7.81,22,16.189999999999998,22,16.189999999999998,22C17.02,22,17.78,21.89,18.44,21.66C20.71,20.93,22,19,22,16.189999999999998C22,16.189999999999998,22,7.81,22,7.81C22,4.17,19.83,2,16.189999999999998,2C16.189999999999998,2,16.189999999999998,2,16.189999999999998,2ZM20.5,16.189999999999998C20.5,18.33,19.66,19.68,17.97,20.24C17,18.33,14.7,16.97,12,16.97C9.3,16.97,7.01,18.32,6.03,20.24C6.03,20.24,6.02,20.24,6.02,20.24C4.35,19.7,3.5,18.34,3.5,16.2C3.5,16.2,3.5,7.81,3.5,7.81C3.5,4.99,4.99,3.5,7.81,3.5C7.81,3.5,16.189999999999998,3.5,16.189999999999998,3.5C19.01,3.5,20.5,4.99,20.5,7.81C20.5,7.81,20.5,16.189999999999998,20.5,16.189999999999998C20.5,16.189999999999998,20.5,16.189999999999998,20.5,16.189999999999998Z" fill="#292D32" fill-opacity="1"/></g><g><path d="M12.000000076293945,8C10.020000076293945,8,8.420000076293945,9.6,8.420000076293945,11.58C8.420000076293945,13.559999999999999,10.020000076293945,15.17,12.000000076293945,15.17C13.980000076293944,15.17,15.580000076293945,13.559999999999999,15.580000076293945,11.58C15.580000076293945,9.6,13.980000076293944,8,12.000000076293945,8C12.000000076293945,8,12.000000076293945,8,12.000000076293945,8Z" fill="#292D32" fill-opacity="1"/></g></g></g></g></g></svg>