<svg xmlns="http://www.w3.org/2000/svg" xmlns:xlink="http://www.w3.org/1999/xlink" fill="none" version="1.1" width="24" height="24" viewBox="0 0 24 24"><g><g><g><g style="opacity:0;"></g><g><path d="M15.719999656677246,9.689999504089355C13.669999656677245,7.629999504089356,10.329999656677247,7.629999504089356,8.279999656677246,9.689999504089355C6.219999656677246,11.749999504089356,6.219999656677246,15.079999504089354,8.279999656677246,17.129999504089355C10.339999656677247,19.189999504089357,13.669999656677245,19.189999504089357,15.719999656677246,17.129999504089355C17.779999656677248,15.069999504089356,17.779999656677248,11.739999504089356,15.719999656677246,9.689999504089355C15.719999656677246,9.689999504089355,15.719999656677246,9.689999504089355,15.719999656677246,9.689999504089355ZM12.529999656677246,13.939999504089355C12.529999656677246,13.939999504089355,10.939999656677246,15.529999504089355,10.939999656677246,15.529999504089355C10.789999656677246,15.679999504089356,10.599999656677246,15.749999504089356,10.409999656677247,15.749999504089356C10.219999656677246,15.749999504089356,10.019999656677246,15.679999504089356,9.879999656677246,15.529999504089355C9.589999656677247,15.239999504089354,9.589999656677247,14.759999504089356,9.879999656677246,14.459999504089357C9.879999656677246,14.459999504089357,11.469999656677246,12.869999504089355,11.469999656677246,12.869999504089355C11.759999656677246,12.579999504089354,12.239999656677245,12.579999504089354,12.539999656677246,12.869999504089355C12.829999656677245,13.169999504089356,12.829999656677245,13.649999504089354,12.529999656677246,13.939999504089355C12.529999656677246,13.939999504089355,12.529999656677246,13.939999504089355,12.529999656677246,13.939999504089355Z" fill="#292D32" fill-opacity="1"/></g><g><path d="M19.599999923706054,5.80999979019165C19.379999923706055,5.5899997901916505,19.099999923706054,5.46999979019165,18.789999923706056,5.46999979019165C18.480000923706054,5.46999979019165,18.199999923706056,5.5899997901916505,17.979999923706053,5.7999997901916505C17.529999923706054,6.249999790191651,17.529999923706054,6.96999979019165,17.979999923706053,7.419999790191651C18.199999923706056,7.63999979019165,18.480000923706054,7.75999979019165,18.789999923706056,7.75999979019165C19.099999923706054,7.75999979019165,19.379999923706055,7.63999979019165,19.599999923706054,7.42999979019165C19.819999923706057,7.209999790191651,19.939999923706054,6.92999979019165,19.939999923706054,6.619999790191651C19.939999923706054,6.30999979019165,19.819999923706057,6.01999979019165,19.599999923706054,5.80999979019165C19.599999923706054,5.80999979019165,19.599999923706054,5.80999979019165,19.599999923706054,5.80999979019165Z" fill="#292D32" fill-opacity="1"/></g><g><path d="M6.019999942779541,19.389999237060547C5.799999942779541,19.169999237060548,5.519999942779541,19.049999237060547,5.209999942779541,19.049999237060547C4.899999942779541,19.049999237060547,4.6199999427795415,19.169999237060548,4.399999942779541,19.379999237060545C4.179999942779541,19.599999237060548,4.059999942779541,19.880000237060546,4.059999942779541,20.189999237060547C4.059999942779541,20.499999237060546,4.179999942779541,20.779999237060547,4.399999942779541,20.999999237060546C4.6199999427795415,21.21999923706055,4.919999942779541,21.329999237060548,5.209999942779541,21.329999237060548C5.4999999427795405,21.329999237060548,5.799999942779541,21.21999923706055,6.019999942779541,20.989999237060548C6.459999942779541,20.55999923706055,6.459999942779541,19.829999237060548,6.019999942779541,19.389999237060547C6.019999942779541,19.389999237060547,6.019999942779541,19.389999237060547,6.019999942779541,19.389999237060547Z" fill="#292D32" fill-opacity="1"/></g><g><path d="M22.41000129699707,12.600000228881836C22.20000129699707,12.380000228881835,21.91000129699707,12.270000228881836,21.60000129699707,12.260000228881836C21.29000029699707,12.260000228881836,21.01000129699707,12.380000228881835,20.79000129699707,12.600000228881836C20.34000129699707,13.050000228881835,20.34000129699707,13.770000228881836,20.79000129699707,14.220000228881837C21.01000129699707,14.440000228881836,21.31000029699707,14.550000228881835,21.60000129699707,14.550000228881835C21.89000129699707,14.550000228881835,22.19000129699707,14.440000228881836,22.41000129699707,14.220000228881837C22.86000129699707,13.770000228881836,22.86000129699707,13.040000228881835,22.41000129699707,12.600000228881836C22.41000129699707,12.600000228881836,22.41000129699707,12.600000228881836,22.41000129699707,12.600000228881836Z" fill="#292D32" fill-opacity="1"/></g><g><path d="M3.210000057220459,12.600001119934081C2.770000057220459,12.160001119934082,2.040000057220459,12.150001119934082,1.590000057220459,12.600001119934081C1.140000057220459,13.050001119934082,1.140000057220459,13.770000119934082,1.590000057220459,14.220000119934081C1.810000057220459,14.440000119934082,2.110000057220459,14.550000119934083,2.400000057220459,14.550000119934083C2.690000057220459,14.550000119934083,2.990000057220459,14.440000119934082,3.210000057220459,14.220000119934081C3.650000057220459,13.770000119934082,3.650000057220459,13.040001119934082,3.210000057220459,12.600001119934081C3.210000057220459,12.600001119934081,3.210000057220459,12.600001119934081,3.210000057220459,12.600001119934081Z" fill="#292D32" fill-opacity="1"/></g><g><path d="M19.599999923706054,19.389999771118163C19.149999923706055,18.939999771118163,18.429999923706056,18.939999771118163,17.979999923706053,19.389999771118163C17.529999923706054,19.839999771118165,17.529999923706054,20.559999771118164,17.979999923706053,21.009999771118164C18.199999923706056,21.229999771118166,18.500000923706054,21.339999771118165,18.789999923706056,21.339999771118165C19.079999923706055,21.339999771118165,19.379999923706055,21.229999771118166,19.599999923706054,21.009999771118164C19.819999923706057,20.789999771118165,19.939999923706054,20.499999771118166,19.939999923706054,20.199999771118165C19.939999923706054,19.890000771118164,19.819999923706057,19.599999771118163,19.599999923706054,19.389999771118163C19.599999923706054,19.389999771118163,19.599999923706054,19.389999771118163,19.599999923706054,19.389999771118163Z" fill="#292D32" fill-opacity="1"/></g><g><path d="M6.019999942779541,5.80999979019165C5.799999942779541,5.5899997901916505,5.519999942779541,5.46999979019165,5.209999942779541,5.46999979019165C4.899999942779541,5.46999979019165,4.6199999427795415,5.5899997901916505,4.399999942779541,5.7999997901916505C4.179999942779541,6.01999979019165,4.059999942779541,6.2999997901916505,4.059999942779541,6.60999979019165C4.059999942779541,6.919999790191651,4.179999942779541,7.209999790191651,4.399999942779541,7.419999790191651C4.6199999427795415,7.63999979019165,4.899999942779541,7.75999979019165,5.209999942779541,7.75999979019165C5.519999942779541,7.75999979019165,5.799999942779541,7.63999979019165,6.019999942779541,7.42999979019165C6.459999942779541,6.97999979019165,6.459999942779541,6.249999790191651,6.019999942779541,5.80999979019165C6.019999942779541,5.80999979019165,6.019999942779541,5.80999979019165,6.019999942779541,5.80999979019165Z" fill="#292D32" fill-opacity="1"/></g><g><path d="M12.810000381469727,2.9999999046325683C12.810000381469727,2.9899999046325685,12.810000381469727,2.9899999046325685,12.810000381469727,2.9999999046325683C12.360000381469726,2.5499999046325685,11.639999381469726,2.5499999046325685,11.189999381469727,2.9999999046325683C10.969999381469727,3.2199999046325685,10.850000381469727,3.5099999046325685,10.850000381469727,3.8099999046325683C10.850000381469727,4.119999904632568,10.970000381469726,4.399999904632568,11.180000381469727,4.619999904632568C11.400000381469727,4.839999904632569,11.679999381469727,4.959999904632568,11.990000381469727,4.959999904632568C12.300000381469726,4.959999904632568,12.580000381469727,4.839999904632569,12.800000381469726,4.619999904632568C13.260000381469727,4.169999904632569,13.260000381469727,3.439999904632568,12.810000381469727,2.9999999046325683C12.810000381469727,2.9999999046325683,12.810000381469727,2.9999999046325683,12.810000381469727,2.9999999046325683Z" fill="#292D32" fill-opacity="1"/></g></g></g></g></svg>